# xmcd
#
# Track frame offsets: 
#        150
#        10897
#        23852
#        37095
#        52200
#        63860
#        75417
#        89405
#        100392
#        110897
#        120952
#        130637
#        141277
#        149900
#        158067
#        171552
#        187847
#        196190
#        207112
#        218292
#        233050
#        244332
#        255312
#        268027
#        279455
#        290847
#        302720
#        315010
#        327275
#        338887
#
# Disc length: 4664 seconds
#
# Revision: 0
# Processed by: cddbd v1.4PL0 Copyright (c) Steve Scherf et al.
# Submitted via: ExactAudioCopy v0.90b3
#
DISCID=b412361e
DTITLE=Ernest Tubb and The Texas Troubadours - Waltz Across Texas - CD3
DYEAR=1998
DGENRE=Country
TTITLE0=Be Better To Your Baby
TTITLE1=The Way That You're Living (Is Breaking My Heart)
TTITLE2=Your Side Of The Story
TTITLE3=Beyond The Last Mile
TTITLE4=Thanks A Lot
TTITLE5=Thanks A Lot
TTITLE6=Lonesome 7-7203
TTITLE7=San Antonio Rose
TTITLE8=Six Days On The Road
TTITLE9=Cain's Corner
TTITLE10=Rhodes'-Bud Boogie
TTITLE11=I'll Have Another Cup Of Coffee
TTITLE12=Panhandle Rag
TTITLE13=Texas Troubadour Stomp
TTITLE14=I Will Miss You When You Go
TTITLE15=The Last Letter
TTITLE16=12th Street Rag
TTITLE17=Honey Love
TTITLE18=The Waltz You Saved For Me
TTITLE19=Stop Me (If You've Heard This One Before)
TTITLE20=Big Fool Of The Year
TTITLE21=Take A Letter, Miss Gray
TTITLE22=Lonesome 7-7203
TTITLE23=Think Of Me, Thinking Of You
TTITLE24=The Green Light
TTITLE25=There She Goes
TTITLE26=I Almost Lost My Mind
TTITLE27=Steppin' Out
TTITLE28=Love Was Right Here All The Time (with Loretta Lynn)
TTITLE29=I'll Just Call You Darlin' (with Loretta Lynn)
EXTD=
EXTT0=
EXTT1=
EXTT2=
EXTT3=
EXTT4=
EXTT5=
EXTT6=
EXTT7=
EXTT8=
EXTT9=
EXTT10=
EXTT11=
EXTT12=
EXTT13=
EXTT14=
EXTT15=
EXTT16=
EXTT17=
EXTT18=
EXTT19=
EXTT20=
EXTT21=
EXTT22=
EXTT23=
EXTT24=
EXTT25=
EXTT26=
EXTT27=
EXTT28=
EXTT29=
PLAYORDER=
